<svg xmlns="http://www.w3.org/2000/svg" fill="none" viewBox="0 0 60 44">
  <path d="m9.14 24.61 11.95-24.49h9.22l7.07 14.61-6.95 7.74-4.61-11.01-5.35 11.23c-3.66-1.11-7.86-0.68-11.33 1.92z" fill="currentColor"/>
  <path d="m42.68 24.61-5.79 7.92 4.26 11.18h10.74l-9.21-19.1z" fill="currentColor"/>
  <path d="m1.09 43.71 5.89-13.55c2.43-5.44 9.95-7.04 14.17-3.25l4.78 3.92c0.6 0.5 1.18 0.41 1.75-0.24l15.65-19.68-3.11-3.59 13.36-2.81-1.16 14.33-3.53-3.32-22.2 25.74-0.68 0.03-9.3-10.72-5.85 13.14h-9.77z" fill="currentColor"/>
  <path d="m26.91 33.6c-1.09 0.19-2.02-0.44-2.62-1.06l-3.98-4.15c-2.78-2.96-7.93-3.38-12.19 0.4 2.86-3.7 8.83-4.91 12.36-2.18l5.21 4.6c0.61 0.54 1.34 0.34 1.92-0.37l15.72-20.18 2.78-0.72 7.18-5.49-1.18 13.18-3.28-2.87-19.67 17.4c-0.58 0.64-1.44 1.08-2.25 1.19z" fill="currentColor"/>
</svg>