<svg xmlns="http://www.w3.org/2000/svg" width="160" height="44" fill="none" viewBox="0 0 160 44">
<!-- SVG created with Arrow, by QuiverAI (https://quiver.ai) -->
  <path d="m60.16 22.5c0-5.31 3.33-8.24 7.47-8.24 2.75 0 4.36 1.2 5.21 2.9h0.07v-2.53h3.27v15.69h-3.4v-2.4h-0.06c-0.98 1.79-2.71 2.79-5.09 2.79-4.3 0-7.47-2.86-7.47-8.21zm12.62 0c0-3.17-1.82-5.15-4.54-5.15-2.63 0-4.52 1.86-4.52 5.15s1.89 5.11 4.52 5.11c2.72 0 4.54-1.94 4.54-5.11z" fill="url(#paint0_linear_2001_199)"/>
  <path d="m77.81 14.63h3.89l4.01 11.64h0.06l4.14-11.64h3.63l-5.75 15.56h-4.11l-5.87-15.56z" fill="url(#paint1_linear_2001_199)"/>
  <path d="m109.7 23.48h-11.61c0.35 2.63 1.87 4.25 4.37 4.25 2.13 0 3.3-1.05 3.78-2.22h3.32c-0.72 2.88-3.1 5.14-7.19 5.14-4.9 0-7.62-3.17-7.62-7.81 0-4.83 3.02-8.39 7.55-8.39 4.8 0 7.49 3.43 7.49 8.17v0.86h-0.09zm-11.58-2.57h8.31c-0.44-2.28-1.81-3.65-4.13-3.65-2.31 0-3.65 1.43-4.18 3.65z" fill="url(#paint2_linear_2001_199)"/>
  <path d="m112.8 14.63h3.71v2.25h0.06c0.98-1.76 2.44-2.5 4.69-2.5 4.23 0 5.6 3.25 5.6 6.75v9.06h-3.68v-8.41c0-2.57-0.91-4.27-3.26-4.27-2.28 0-3.41 1.7-3.41 4.27v8.41h-3.71v-15.56z" fill="url(#paint3_linear_2001_199)"/>
  <path d="m129.5 27.51 6.94-9.69v-0.06h-6.6v-3.25h11.44v2.81l-6.88 9.75v0.07h6.76v3.06h-11.66v-2.69z" fill="url(#paint4_linear_2001_199)"/>
  <path d="m143.1 22.41c0-4.78 3.1-8.09 8.06-8.09 4.93 0 8.03 3.31 8.03 8.09 0 4.85-3.1 8.21-8.03 8.21-4.96 0-8.06-3.36-8.06-8.21zm12.47 0c0-3.1-1.85-5.15-4.41-5.15-2.66 0-4.42 2.05-4.42 5.15 0 3.19 1.76 5.26 4.42 5.26 2.56 0 4.41-2.07 4.41-5.26z" fill="url(#paint5_linear_2001_199)"/>
  <path d="m9.14 24.61 11.95-24.49h9.22l7.07 14.61-6.95 7.74-4.61-11.01-5.35 11.23c-3.66-1.11-7.86-0.68-11.33 1.92z" fill="url(#paint6_linear_2001_199)"/>
  <path d="m42.68 24.61-5.79 7.92 4.26 11.18h10.74l-9.21-19.1z" fill="url(#paint7_linear_2001_199)"/>
  <path d="m1.09 43.71 5.89-13.55c2.43-5.44 9.95-7.04 14.17-3.25l4.78 3.92c0.6 0.5 1.18 0.41 1.75-0.24l15.65-19.68-3.11-3.59 13.36-2.81-1.16 14.33-3.53-3.32-22.2 25.74-0.68 0.03-9.3-10.72-5.85 13.14h-9.77z" fill="url(#paint8_linear_2001_199)"/>
  <path d="m26.91 33.6c-1.09 0.19-2.02-0.44-2.62-1.06l-3.98-4.15c-2.78-2.96-7.93-3.38-12.19 0.4 2.86-3.7 8.83-4.91 12.36-2.18l5.21 4.6c0.69 0.61 1.52 0.38 2.18-0.43l15.46-19.87 2.78-0.72 7.18-5.49-1.18 13.18-3.28-2.87-19.67 17.4c-0.58 0.64-1.44 1.08-2.25 1.19z" fill="url(#paint9_linear_2001_199)"/>
  <defs>
    <linearGradient id="paint0_linear_2001_199" x1="60.16" x2="159.2" y1="22.49" y2="22.49" gradientUnits="userSpaceOnUse">
      <stop stop-color="#114A3F" offset="0"/>
      <stop stop-color="#27826D" offset="1"/>
    </linearGradient>
    <linearGradient id="paint1_linear_2001_199" x1="60.16" x2="159.2" y1="22.41" y2="22.41" gradientUnits="userSpaceOnUse">
      <stop stop-color="#114A3F" offset="0"/>
      <stop stop-color="#27826D" offset="1"/>
    </linearGradient>
    <linearGradient id="paint2_linear_2001_199" x1="60.16" x2="159.2" y1="22.55" y2="22.55" gradientUnits="userSpaceOnUse">
      <stop stop-color="#114A3F" offset="0"/>
      <stop stop-color="#27826D" offset="1"/>
    </linearGradient>
    <linearGradient id="paint3_linear_2001_199" x1="60.16" x2="159.2" y1="22.29" y2="22.29" gradientUnits="userSpaceOnUse">
      <stop stop-color="#114A3F" offset="0"/>
      <stop stop-color="#27826D" offset="1"/>
    </linearGradient>
    <linearGradient id="paint4_linear_2001_199" x1="60.16" x2="159.2" y1="22.36" y2="22.36" gradientUnits="userSpaceOnUse">
      <stop stop-color="#114A3F" offset="0"/>
      <stop stop-color="#27826D" offset="1"/>
    </linearGradient>
    <linearGradient id="paint5_linear_2001_199" x1="60.16" x2="159.2" y1="22.47" y2="22.47" gradientUnits="userSpaceOnUse">
      <stop stop-color="#114A3F" offset="0"/>
      <stop stop-color="#27826D" offset="1"/>
    </linearGradient>
    <linearGradient id="paint6_linear_2001_199" x1="12.71" x2="27.22" y1="23.35" y2="-3.132" gradientUnits="userSpaceOnUse">
      <stop stop-color="#114A3F" offset="0"/>
      <stop stop-color="#207261" offset="1"/>
    </linearGradient>
    <linearGradient id="paint7_linear_2001_199" x1="37.27" x2="49.4" y1="26.32" y2="44.96" gradientUnits="userSpaceOnUse">
      <stop stop-color="#116354" offset="0"/>
      <stop stop-color="#114A3F" offset="1"/>
    </linearGradient>
    <linearGradient id="paint8_linear_2001_199" x1="1.086" x2="53.58" y1="23.91" y2="23.91" gradientUnits="userSpaceOnUse">
      <stop stop-color="#083A31" offset="0"/>
      <stop stop-color="#116354" offset=".51"/>
      <stop stop-color="#27826D" offset="1"/>
    </linearGradient>
    <linearGradient id="paint9_linear_2001_199" x1="17.49" x2="53.41" y1="18.47" y2="18.47" gradientUnits="userSpaceOnUse">
      <stop stop-color="#085347" offset="0"/>
      <stop stop-color="#1D7464" offset=".51"/>
      <stop stop-color="#31937B" offset="1"/>
    </linearGradient>
  </defs>
</svg>